<svg xmlns="http://www.w3.org/2000/svg" width="16" height="16" viewBox="0 0 16 16">
  <g id="icon" transform="translate(-6 -4)">
    <rect id="矩形_9666" data-name="矩形 9666" width="16" height="16" transform="translate(6 4)" fill="none"/>
    <g id="组_22930" data-name="组 22930" transform="translate(-97.1 -92.339)">
      <path id="路径_48895" data-name="路径 48895" d="M116.168,130.53a.432.432,0,0,0-.432.432V136h-1.154v-3.662a.432.432,0,0,0-.865,0v6h-7.755V130.58h5.449a.432.432,0,0,0,0-.865h-3.389v-1.45h5.212a.432.432,0,0,0,0-.865h-5.21a.864.864,0,0,0-.863.863v1.45h-1.2a.864.864,0,0,0-.863.863v7.757a.864.864,0,0,0,.863.863h7.757a.864.864,0,0,0,.863-.863v-1.476h1.154a.864.864,0,0,0,.863-.863v-5.033A.433.433,0,0,0,116.168,130.53Z" transform="translate(0 -28.744)" fill="#fff"/>
      <path id="路径_48896" data-name="路径 48896" d="M214.132,560.636h4.008a.432.432,0,0,0,0-.865h-4.008a.432.432,0,0,0,0,.865Zm0-1.971h2.981a.432.432,0,0,0,0-.865h-2.981a.432.432,0,0,0,0,.865Z" transform="translate(-106.998 -452.794)" fill="#fff"/>
      <path id="路径_48897" data-name="路径 48897" d="M575.959,690.059m-.459,0a.459.459,0,1,0,.459-.459A.459.459,0,0,0,575.5,690.059Z" transform="translate(-463.459 -582.649)" fill="#fff"/>
      <path id="路径_48898" data-name="路径 48898" d="M524.273,98.377a.519.519,0,0,0-.733,0l-4.863,4.863a.519.519,0,0,0,0,.733.517.517,0,0,0,.732,0l4.863-4.863A.518.518,0,0,0,524.273,98.377Z" transform="translate(-407.325)" fill="#fff"/>
    </g>
  </g>
</svg>
