<svg xmlns="http://www.w3.org/2000/svg" width="16" height="16" viewBox="0 0 16 16">
  <g id="icon" transform="translate(-6 -4)">
    <rect id="矩形_9666" data-name="矩形 9666" width="16" height="16" transform="translate(6 4)" fill="none"/>
    <path id="路径_48894" data-name="路径 48894" d="M91.74,83.846,88.154,80.26a.889.889,0,0,0-.628-.26H80.889a.889.889,0,0,0-.889.889V91.111a.889.889,0,0,0,.889.889H91.111A.889.889,0,0,0,92,91.111V84.475a.889.889,0,0,0-.26-.628Zm-8.851-2.957h2.667v1.556H82.889Zm6.222,10.222H82.889v-2h6.222Zm2,0H90V88.667a.444.444,0,0,0-.444-.444H82.444a.444.444,0,0,0-.444.444v2.444H80.889V80.889H82v2a.444.444,0,0,0,.444.444H86a.444.444,0,0,0,.444-.444v-2h1.081l3.586,3.586Z" transform="translate(-71.555 -74)" fill="#fff"/>
  </g>
</svg>
